HIERARCHY
ROOT hip
{
  OFFSET 5.70873 43.8894 -1.52928
  CHANNELS 6 Xposition Yposition Zposition Zrotation Xrotation Yrotation
  JOINT abdomen
  {
    OFFSET 0 5.99393 0.287273
    CHANNELS 6 Xposition Yposition Zposition Zrotation Xrotation Yrotation
    JOINT chest
    {
      OFFSET 0 6.65865 -0.856112
      CHANNELS 6 Xposition Yposition Zposition Zrotation Xrotation Yrotation
      JOINT neck
      {
        OFFSET 0 8.65624 -1.42685
        CHANNELS 6 Xposition Yposition Zposition Zrotation Xrotation Yrotation
        JOINT head
        {
          OFFSET 0 3.80999 -0.190247
          CHANNELS 6 Xposition Yposition Zposition Zrotation Xrotation Yrotation
          End Site
          {
            OFFSET 0 0 0
          }
        }
      }
      JOINT rCollar
      {
        OFFSET -1.4963 7.5744 -1.52136
        CHANNELS 6 Xposition Yposition Zposition Zrotation Xrotation Yrotation
        JOINT rShldr
        {
          OFFSET -5.47506 -0.905672 0.485692
          CHANNELS 6 Xposition Yposition Zposition Zrotation Xrotation Yrotation
          JOINT rForeArm
          {
            OFFSET -11.3069 -0.201091 0.618544
            CHANNELS 6 Xposition Yposition Zposition Zrotation Xrotation Yrotation
            JOINT rHand
            {
              OFFSET -9.61414 -0.254739 3.48553
              CHANNELS 6 Xposition Yposition Zposition Zrotation Xrotation Yrotation
              JOINT rThumb1
              {
                OFFSET 0.176263 -0.07068 1.26622
                CHANNELS 6 Xposition Yposition Zposition Zrotation Xrotation Yrotation
                JOINT rThumb2
                {
                  OFFSET -1.04683 -0.546484 1.82182
                  CHANNELS 6 Xposition Yposition Zposition Zrotation Xrotation Yrotation
                  JOINT rThumb3
                  {
                    OFFSET -0.993472 -0.621916 0.655506
                    CHANNELS 6 Xposition Yposition Zposition Zrotation Xrotation Yrotation
                    End Site
                    {
                      OFFSET -0.996134 -0.66263 0.644615
                    }
                  }
                }
              }
              JOINT rIndex1
              {
                OFFSET -2.64253 0.566363 2.4162
                CHANNELS 6 Xposition Yposition Zposition Zrotation Xrotation Yrotation
                JOINT rIndex2
                {
                  OFFSET -1.39394 -0.635138 0.899356
                  CHANNELS 6 Xposition Yposition Zposition Zrotation Xrotation Yrotation
                  JOINT rIndex3
                  {
                    OFFSET -0.622395 -0.856016 0.402182
                    CHANNELS 6 Xposition Yposition Zposition Zrotation Xrotation Yrotation
                    End Site
                    {
                      OFFSET -0.472476 -0.801802 0.34216
                    }
                  }
                }
              }
              JOINT rMid1
              {
                OFFSET -3.20814 0.514427 1.52547
                CHANNELS 6 Xposition Yposition Zposition Zrotation Xrotation Yrotation
                JOINT rMid2
                {
                  OFFSET -1.56545 -0.497974 0.68919
                  CHANNELS 6 Xposition Yposition Zposition Zrotation Xrotation Yrotation
                  JOINT rMid3
                  {
                    OFFSET -0.679943 -1.17582 0.444246
                    CHANNELS 6 Xposition Yposition Zposition Zrotation Xrotation Yrotation
                    End Site
                    {
                      OFFSET -0.343874 -0.941341 0.267611
                    }
                  }
                }
              }
              JOINT rRing1
              {
                OFFSET -3.47877 0.200518 0.597719
                CHANNELS 6 Xposition Yposition Zposition Zrotation Xrotation Yrotation
                JOINT rRing2
                {
                  OFFSET -1.28208 -0.53155 0.44672
                  CHANNELS 6 Xposition Yposition Zposition Zrotation Xrotation Yrotation
                  JOINT rRing3
                  {
                    OFFSET -0.710288 -0.970167 0.4032
                    CHANNELS 6 Xposition Yposition Zposition Zrotation Xrotation Yrotation
                    End Site
                    {
                      OFFSET -0.403228 -0.950952 0.378354
                    }
                  }
                }
              }
              JOINT rPinky1
              {
                OFFSET -3.42483 -0.278904 -0.240415
                CHANNELS 6 Xposition Yposition Zposition Zrotation Xrotation Yrotation
                JOINT rPinky2
                {
                  OFFSET -1.05787 -0.635999 0.156459
                  CHANNELS 6 Xposition Yposition Zposition Zrotation Xrotation Yrotation
                  JOINT rPinky3
                  {
                    OFFSET -0.42815 -0.754232 0.287187
                    CHANNELS 6 Xposition Yposition Zposition Zrotation Xrotation Yrotation
                    End Site
                    {
                      OFFSET -0.235717 -0.725605 0.279416
                    }
                  }
                }
              }
            }
          }
        }
      }
      JOINT lCollar
      {
        OFFSET 1.4963 7.5744 -1.52136
        CHANNELS 6 Xposition Yposition Zposition Zrotation Xrotation Yrotation
        JOINT lShldr
        {
          OFFSET 5.47506 -0.905672 0.485692
          CHANNELS 6 Xposition Yposition Zposition Zrotation Xrotation Yrotation
          JOINT lForeArm
          {
            OFFSET 11.3069 -0.201091 0.618544
            CHANNELS 6 Xposition Yposition Zposition Zrotation Xrotation Yrotation
            JOINT lHand
            {
              OFFSET 9.61414 -0.254739 3.48553
              CHANNELS 6 Xposition Yposition Zposition Zrotation Xrotation Yrotation
              JOINT lThumb1
              {
                OFFSET -0.176263 -0.07068 1.26622
                CHANNELS 6 Xposition Yposition Zposition Zrotation Xrotation Yrotation
                JOINT lThumb2
                {
                  OFFSET 1.04683 -0.546484 1.82182
                  CHANNELS 6 Xposition Yposition Zposition Zrotation Xrotation Yrotation
                  JOINT lThumb3
                  {
                    OFFSET 0.993472 -0.621916 0.655506
                    CHANNELS 6 Xposition Yposition Zposition Zrotation Xrotation Yrotation
                    End Site
                    {
                      OFFSET 0.996134 -0.66263 0.644615
                    }
                  }
                }
              }
              JOINT lIndex1
              {
                OFFSET 2.64253 0.566363 2.4162
                CHANNELS 6 Xposition Yposition Zposition Zrotation Xrotation Yrotation
                JOINT lIndex2
                {
                  OFFSET 1.39394 -0.635138 0.899356
                  CHANNELS 6 Xposition Yposition Zposition Zrotation Xrotation Yrotation
                  JOINT lIndex3
                  {
                    OFFSET 0.622395 -0.856016 0.402182
                    CHANNELS 6 Xposition Yposition Zposition Zrotation Xrotation Yrotation
                    End Site
                    {
                      OFFSET 0.472476 -0.801802 0.34216
                    }
                  }
                }
              }
              JOINT lMid1
              {
                OFFSET 3.20814 0.514427 1.52547
                CHANNELS 6 Xposition Yposition Zposition Zrotation Xrotation Yrotation
                JOINT lMid2
                {
                  OFFSET 1.56545 -0.497974 0.68919
                  CHANNELS 6 Xposition Yposition Zposition Zrotation Xrotation Yrotation
                  JOINT lMid3
                  {
                    OFFSET 0.679943 -1.17582 0.444246
                    CHANNELS 6 Xposition Yposition Zposition Zrotation Xrotation Yrotation
                    End Site
                    {
                      OFFSET 0.343874 -0.941341 0.267611
                    }
                  }
                }
              }
              JOINT lRing1
              {
                OFFSET 3.47877 0.200518 0.597719
                CHANNELS 6 Xposition Yposition Zposition Zrotation Xrotation Yrotation
                JOINT lRing2
                {
                  OFFSET 1.28208 -0.53155 0.44672
                  CHANNELS 6 Xposition Yposition Zposition Zrotation Xrotation Yrotation
                  JOINT lRing3
                  {
                    OFFSET 0.710288 -0.970167 0.4032
                    CHANNELS 6 Xposition Yposition Zposition Zrotation Xrotation Yrotation
                    End Site
                    {
                      OFFSET 0.403228 -0.950952 0.378354
                    }
                  }
                }
              }
              JOINT lPinky1
              {
                OFFSET 3.42483 -0.278904 -0.240415
                CHANNELS 6 Xposition Yposition Zposition Zrotation Xrotation Yrotation
                JOINT lPinky2
                {
                  OFFSET 1.05787 -0.635999 0.156459
                  CHANNELS 6 Xposition Yposition Zposition Zrotation Xrotation Yrotation
                  JOINT lPinky3
                  {
                    OFFSET 0.42815 -0.754232 0.287187
                    CHANNELS 6 Xposition Yposition Zposition Zrotation Xrotation Yrotation
                    End Site
                    {
                      OFFSET 0.235717 -0.725605 0.279416
                    }
                  }
                }
              }
            }
          }
        }
      }
    }
  }
  JOINT rThigh
  {
    OFFSET -4.17848 -1.02486 0.046356
    CHANNELS 6 Xposition Yposition Zposition Zrotation Xrotation Yrotation
    JOINT rShin
    {
      OFFSET 1.27155 -17.465 -0.237699
      CHANNELS 6 Xposition Yposition Zposition Zrotation Xrotation Yrotation
      JOINT rFoot
      {
        OFFSET 0.529163 -17.3815 -1.19582
        CHANNELS 6 Xposition Yposition Zposition Zrotation Xrotation Yrotation
        JOINT rToe
        {
          OFFSET -0.711591 -4.4863 4.0596
          CHANNELS 6 Xposition Yposition Zposition Zrotation Xrotation Yrotation
          End Site
          {
            OFFSET -0.869915 -1.10655 1.99006
          }
        }
      }
    }
  }
  JOINT lThigh
  {
    OFFSET 4.17848 -1.02486 0.046356
    CHANNELS 6 Xposition Yposition Zposition Zrotation Xrotation Yrotation
    JOINT lShin
    {
      OFFSET -1.27155 -17.465 -0.237699
      CHANNELS 6 Xposition Yposition Zposition Zrotation Xrotation Yrotation
      JOINT lFoot
      {
        OFFSET -0.529163 -17.3815 -1.19582
        CHANNELS 6 Xposition Yposition Zposition Zrotation Xrotation Yrotation
        JOINT lToe
        {
          OFFSET 0.711591 -4.4863 4.0596
          CHANNELS 6 Xposition Yposition Zposition Zrotation Xrotation Yrotation
          End Site
          {
            OFFSET 0.869915 -1.10655 1.99006
          }
        }
      }
    }
  }
}
MOTION
Frames:	4
Frame Time:	0.0333333
0.0382361 44.4609 -0.0462995 -5.12381 -5.28255 -7.36158 4.44089e-016 5.99393 0.287273 1.5214 2.41681 -0.601554 0 6.65865 -0.856112 3.07221 4.81663 -1.26887 3.33067e-016 8.65624 -1.42685 -0.0510048 -5.50049 -1.62218 2.22045e-016 3.80999 -0.190247 3.45256 -0.475764 0.995885 -1.4963 7.5744 -1.52136 -13.559 -0.00978437 -2.93845 -5.47506 -0.905672 0.485692 88.2708 3.22452 -9.93847 -11.3069 -0.201091 0.618544 -3.09458 23.0917 -0.12113 -9.61414 -0.254739 3.48553 -6.27608 23.6246 13.4341 0.176263 -0.07068 1.26622 -19.3465 -2.20953 -7.14763 -1.04683 -0.546484 1.82182 1.48275 -1.44801 4.28413 -0.993472 -0.621916 0.655506 -0.879936 0.970541 -2.68777 -2.64253 0.566363 2.4162 -10.3526 4.12421 -2.92639 -1.39394 -0.635138 0.899356 -4.08967 -1.11165 0.56351 -0.622395 -0.856016 0.402182 -4.7508 -1.2951 0.646952 -3.20814 0.514427 1.52547 -20.3293 -3.56521 2.73847 -1.56545 -0.497974 0.68919 -7.03017 -2.22056 0.867271 -0.679943 -1.17582 0.444246 -14.4042 -4.65144 1.48036 -3.47877 0.200518 0.597719 -23.9005 -10.6914 4.24907 -1.28208 -0.53155 0.44672 -5.70391 -2.02844 0.94408 -0.710288 -0.970167 0.4032 -13.066 -4.77922 1.86246 -3.42483 -0.278904 -0.240415 -25.7114 -12.8835 2.68495 -1.05787 -0.635999 0.156459 -13.1859 -5.18117 1.64812 -0.42815 -0.754232 0.287187 -4.85475 -1.85723 0.742756 1.4963 7.5744 -1.52136 19.3846 0.0170232 0.223122 5.47506 -0.905672 0.485692 -96.6101 12.6618 10.1399 11.3069 -0.201091 0.618544 -0.972015 13.4559 -4.16615 9.61414 -0.254739 3.48553 -11.4648 21.2827 17.9077 -0.176263 -0.07068 1.26622 18.3442 -5.77328 0.610928 1.04683 -0.546484 1.82182 -3.80916 -0.892282 -6.71962 0.993472 -0.621916 0.655506 -0.00890753 -0.00257599 -0.0157603 2.64253 0.566363 2.4162 16.1815 1.01914 -0.626646 1.39394 -0.635138 0.899356 8.69502 -3.19673 -3.2759 0.622395 -0.856016 0.402182 9.30317 -3.44088 -3.48891 3.20814 0.514427 1.52547 23.4877 -7.5835 -8.23504 1.56545 -0.497974 0.68919 11.2662 -4.77221 -4.14646 0.679943 -1.17582 0.444246 17.8872 -7.98329 -6.16862 3.47877 0.200518 0.597719 29.3847 -17.8556 -12.167 1.28208 -0.53155 0.44672 14.2599 -6.88707 -5.83697 0.710288 -0.970167 0.4032 20.7018 -10.5183 -7.95069 3.42483 -0.278904 -0.240415 28.6321 -18.9762 -10.7434 1.05787 -0.635999 0.156459 18.4431 -9.81969 -6.97134 0.42815 -0.754232 0.287187 11.1237 -5.59956 -4.5353 -4.17848 -1.02486 0.046356 7.98607 8.68624 11.5558 1.27155 -17.465 -0.237699 -2.27555 -3.02509 -0.0968665 0.529163 -17.3815 -1.19582 -1.11198 -1.2088 -17.4896 -0.711591 -4.4863 4.0596 0.825013 5.72774 -0.293031 4.17848 -1.02486 0.046356 4.58359 3.85375 -13.7083 -1.27155 -17.465 -0.237699 0.162945 5.16552 -0.0189071 -0.529163 -17.3815 -1.19582 2.09444 -3.7691 -5.06534 0.711591 -4.4863 4.0596 0.0044925 -0.0467017 0.00244944 
0.0307606 44.4651 -0.0549795 -5.02326 -5.1588 -7.37232 4.44089e-016 5.99393 0.287273 1.52742 2.35229 -0.625735 -4.44089e-016 6.65865 -0.856112 3.08437 4.68689 -1.31574 0 8.65624 -1.42685 -0.0466836 -5.67688 -1.52284 -2.22045e-016 3.80999 -0.190247 3.38443 -0.525068 1.05487 -1.4963 7.5744 -1.52136 -13.63 -0.0117608 -2.86849 -5.47506 -0.905672 0.485692 88.2151 3.17591 -10.0365 -11.3069 -0.201091 0.618544 -3.1275 23.1272 -0.105949 -9.61414 -0.254739 3.48553 -6.06734 23.7943 13.0927 0.176263 -0.07068 1.26622 -19.3465 -2.20935 -7.14764 -1.04683 -0.546484 1.82182 1.48277 -1.44801 4.28414 -0.993472 -0.621916 0.655506 -0.879956 0.970542 -2.68777 -2.64253 0.566363 2.4162 -10.3519 4.12437 -2.92655 -1.39394 -0.635138 0.899356 -4.08904 -1.11147 0.563424 -0.622395 -0.856016 0.402182 -4.75037 -1.29499 0.646877 -3.20814 0.514427 1.52547 -20.3249 -3.56365 2.73812 -1.56545 -0.497974 0.68919 -7.02684 -2.21947 0.866933 -0.679943 -1.17582 0.444246 -14.4019 -4.65068 1.48021 -3.47877 0.200518 0.597719 -23.8961 -10.6895 4.24908 -1.28208 -0.53155 0.44672 -5.70011 -2.02706 0.943511 -0.710288 -0.970167 0.4032 -13.0638 -4.77836 1.86225 -3.42483 -0.278904 -0.240415 -25.706 -12.8812 2.68523 -1.05787 -0.635999 0.156459 -13.1837 -5.18027 1.64797 -0.42815 -0.754232 0.287187 -4.85109 -1.85579 0.742266 1.4963 7.5744 -1.52136 19.3759 0.0244201 0.296106 5.47506 -0.905672 0.485692 -96.6663 12.7034 10.0252 11.3069 -0.201091 0.618544 -0.991341 13.3423 -4.15078 9.61414 -0.254739 3.48553 -11.4567 21.0211 17.9248 -0.176263 -0.07068 1.26622 18.3443 -5.77307 0.610863 1.04683 -0.546484 1.82182 -3.80918 -0.892274 -6.71963 0.993472 -0.621916 0.655506 -0.00888354 -0.00257196 -0.0157536 2.64253 0.566363 2.4162 16.1787 1.02014 -0.625439 1.39394 -0.635138 0.899356 8.69339 -3.19607 -3.27531 0.622395 -0.856016 0.402182 9.30152 -3.4402 -3.48836 3.20814 0.514427 1.52547 23.4839 -7.58138 -8.23389 1.56545 -0.497974 0.68919 11.2632 -4.77081 -4.14546 0.679943 -1.17582 0.444246 17.8852 -7.98227 -6.16807 3.47877 0.200518 0.597719 29.381 -17.8531 -12.1663 1.28208 -0.53155 0.44672 14.257 -6.8855 -5.83595 0.710288 -0.970167 0.4032 20.6999 -10.5171 -7.95011 3.42483 -0.278904 -0.240415 28.6275 -18.9731 -10.7427 1.05787 -0.635999 0.156459 18.4412 -9.81852 -6.97078 0.42815 -0.754232 0.287187 11.1208 -5.59797 -4.53425 -4.17848 -1.02486 0.046356 7.84665 8.61344 11.1651 1.27155 -17.465 -0.237699 -2.26993 -3.18525 -0.107342 0.529163 -17.3815 -1.19582 -1.00249 -1.05053 -16.9421 -0.711591 -4.4863 4.0596 0.77624 5.43848 -0.246586 4.17848 -1.02486 0.046356 4.5531 3.6956 -13.3657 -1.27155 -17.465 -0.237699 0.134713 5.05552 -0.0210644 -0.529163 -17.3815 -1.19582 2.07177 -3.65614 -5.29995 0.711591 -4.4863 4.0596 0.00451683 -0.0469681 0.00246102 
0.00320587 44.463 -0.0595939 -5.00271 -5.12216 -7.3738 4.44089e-016 5.99393 0.287273 1.54961 2.33864 -0.613201 -4.44089e-016 6.65865 -0.856112 3.12809 4.6597 -1.29112 -4.44089e-016 8.65624 -1.42685 -0.043879 -5.82438 -1.46522 4.44089e-016 3.80999 -0.190247 3.42931 -0.590815 1.09163 -1.4963 7.5744 -1.52136 -13.6509 -0.0125424 -2.82408 -5.47506 -0.905672 0.485692 88.2234 3.17361 -10.0338 -11.3069 -0.201091 0.618544 -3.11564 23.1255 -0.179895 -9.61414 -0.254739 3.48553 -5.90972 23.796 12.9698 0.176263 -0.07068 1.26622 -19.3466 -2.20916 -7.14765 -1.04683 -0.546484 1.82182 1.48274 -1.448 4.28414 -0.993472 -0.621916 0.655506 -0.879964 0.970542 -2.68777 -2.64253 0.566363 2.4162 -10.3511 4.12453 -2.92671 -1.39394 -0.635138 0.899356 -4.08839 -1.11129 0.563335 -0.622395 -0.856016 0.402182 -4.74992 -1.29487 0.646841 -3.20814 0.514427 1.52547 -20.3205 -3.56206 2.73777 -1.56545 -0.497974 0.68919 -7.02354 -2.21841 0.866576 -0.679943 -1.17582 0.444246 -14.3996 -4.64992 1.48004 -3.47877 0.200518 0.597719 -23.8918 -10.6877 4.24908 -1.28208 -0.53155 0.44672 -5.69626 -2.02566 0.942961 -0.710288 -0.970167 0.4032 -13.0616 -4.77751 1.86203 -3.42483 -0.278904 -0.240415 -25.7006 -12.879 2.68553 -1.05787 -0.635999 0.156459 -13.1815 -5.17939 1.6478 -0.42815 -0.754232 0.287187 -4.84744 -1.85436 0.741765 1.4963 7.5744 -1.52136 19.4197 0.0251774 0.304329 5.47506 -0.905672 0.485692 -96.6787 12.7516 9.78742 11.3069 -0.201091 0.618544 -1.05478 13.1185 -4.03854 9.61414 -0.254739 3.48553 -11.3512 20.9612 17.5075 -0.176263 -0.07068 1.26622 18.3444 -5.77289 0.610791 1.04683 -0.546484 1.82182 -3.80917 -0.892273 -6.71963 0.993472 -0.621916 0.655506 -0.00889561 -0.00257444 -0.0157529 2.64253 0.566363 2.4162 16.1758 1.02112 -0.62424 1.39394 -0.635138 0.899356 8.69173 -3.1954 -3.27473 0.622395 -0.856016 0.402182 9.29987 -3.43956 -3.48779 3.20814 0.514427 1.52547 23.48 -7.57924 -8.23276 1.56545 -0.497974 0.68919 11.2602 -4.76942 -4.14446 0.679943 -1.17582 0.444246 17.8832 -7.98126 -6.16752 3.47877 0.200518 0.597719 29.3772 -17.8506 -12.1656 1.28208 -0.53155 0.44672 14.2542 -6.88394 -5.83491 0.710288 -0.970167 0.4032 20.6979 -10.516 -7.94952 3.42483 -0.278904 -0.240415 28.6228 -18.97 -10.742 1.05787 -0.635999 0.156459 18.4393 -9.81739 -6.97019 0.42815 -0.754232 0.287187 11.118 -5.59638 -4.53319 -4.17848 -1.02486 0.046356 7.82741 8.6007 10.6786 1.27155 -17.465 -0.237699 -2.28618 -3.18548 -0.104172 0.529163 -17.3815 -1.19582 -0.941461 -1.09831 -16.2095 -0.711591 -4.4863 4.0596 0.769075 5.44697 -0.210913 4.17848 -1.02486 0.046356 4.60887 3.82214 -13.2224 -1.27155 -17.465 -0.237699 0.152284 4.84138 -0.0150253 -0.529163 -17.3815 -1.19582 2.02559 -3.62297 -5.41361 0.711591 -4.4863 4.0596 0.00453922 -0.0472381 0.00245343 
-0.0311946 44.4659 -0.0611271 -4.94807 -5.03593 -7.40227 8.88178e-016 5.99393 0.287273 1.55211 2.29778 -0.586215 2.22045e-016 6.65865 -0.856112 3.13148 4.5787 -1.23609 0 8.65624 -1.42685 -0.043746 -5.87902 -1.46772 -2.22045e-016 3.80999 -0.190247 3.4893 -0.603073 1.0831 -1.4963 7.5744 -1.52136 -13.6791 -0.0140154 -2.75146 -5.47506 -0.905672 0.485692 88.3584 3.18589 -10.0159 -11.3069 -0.201091 0.618544 -3.10752 23.02 -0.253097 -9.61414 -0.254739 3.48553 -5.85252 23.9731 12.9359 0.176263 -0.07068 1.26622 -19.3467 -2.20897 -7.14767 -1.04683 -0.546484 1.82182 1.48274 -1.448 4.28415 -0.993472 -0.621916 0.655506 -0.879953 0.970547 -2.68776 -2.64253 0.566363 2.4162 -10.3504 4.12469 -2.92688 -1.39394 -0.635138 0.899356 -4.08771 -1.11109 0.563273 -0.622395 -0.856016 0.402182 -4.7495 -1.29474 0.64678 -3.20814 0.514427 1.52547 -20.3161 -3.56049 2.7374 -1.56545 -0.497974 0.68919 -7.02021 -2.21733 0.866247 -0.679943 -1.17582 0.444246 -14.3899 -4.64668 1.47946 -3.47877 0.200518 0.597719 -23.8875 -10.6858 4.24908 -1.28208 -0.53155 0.44672 -5.69244 -2.02426 0.942401 -0.710288 -0.970167 0.4032 -13.0521 -4.7739 1.86107 -3.42483 -0.278904 -0.240415 -25.6951 -12.8767 2.68583 -1.05787 -0.635999 0.156459 -13.1751 -5.17678 1.64728 -0.42815 -0.754232 0.287187 -4.84378 -1.85293 0.741251 1.4963 7.5744 -1.52136 19.5108 0.0294257 0.34954 5.47506 -0.905672 0.485692 -96.6822 12.7977 9.6179 11.3069 -0.201091 0.618544 -1.08129 12.9963 -3.96196 9.61414 -0.254739 3.48553 -11.1859 21.0021 17.0708 -0.176263 -0.07068 1.26622 18.3444 -5.7727 0.610733 1.04683 -0.546484 1.82182 -3.80915 -0.89229 -6.71962 0.993472 -0.621916 0.655506 -0.00891218 -0.00258166 -0.0157606 2.64253 0.566363 2.4162 16.1729 1.02212 -0.623049 1.39394 -0.635138 0.899356 8.69007 -3.19473 -3.27413 0.622395 -0.856016 0.402182 9.29821 -3.43889 -3.48724 3.20814 0.514427 1.52547 23.4761 -7.57711 -8.23163 1.56545 -0.497974 0.68919 11.2572 -4.76804 -4.14346 0.679943 -1.17582 0.444246 17.8754 -7.97734 -6.16536 3.47877 0.200518 0.597719 29.3735 -17.8481 -12.1649 1.28208 -0.53155 0.44672 14.2513 -6.88238 -5.83387 0.710288 -0.970167 0.4032 20.6905 -10.5117 -7.9473 3.42483 -0.278904 -0.240415 28.6181 -18.9669 -10.7414 1.05787 -0.635999 0.156459 18.4337 -9.81399 -6.9685 0.42815 -0.754232 0.287187 11.1151 -5.5948 -4.53213 -4.17848 -1.02486 0.046356 7.78823 8.51987 10.6257 1.27155 -17.465 -0.237699 -2.2749 -3.15701 -0.120495 0.529163 -17.3815 -1.19582 -0.96704 -1.17466 -15.9129 -0.711591 -4.4863 4.0596 0.78319 5.58794 -0.195854 4.17848 -1.02486 0.046356 4.61647 3.67953 -13.2791 -1.27155 -17.465 -0.237699 0.133173 4.85316 -0.0237622 -0.529163 -17.3815 -1.19582 1.97904 -3.5925 -5.33287 0.711591 -4.4863 4.0596 0.00456341 -0.0475342 0.00246753 
